<svg xmlns="http://www.w3.org/2000/svg" viewBox="0 0 620 160" role="img" aria-labelledby="title desc">
  <title id="title">LaurelPilot</title>
  <desc id="desc">A premium wordmark with a laurel compass emblem for the LaurelPilot film festival strategy platform.</desc>
  <defs>
    <linearGradient id="gold" x1="72" y1="16" x2="72" y2="144" gradientUnits="userSpaceOnUse">
      <stop offset="0" stop-color="#F7D88B"/>
      <stop offset="0.56" stop-color="#C99A3D"/>
      <stop offset="1" stop-color="#8F6323"/>
    </linearGradient>
    <linearGradient id="ink" x1="202" y1="38" x2="202" y2="118" gradientUnits="userSpaceOnUse">
      <stop offset="0" stop-color="#F8FAFC"/>
      <stop offset="1" stop-color="#D7DEE9"/>
    </linearGradient>
  </defs>
  <rect x="16" y="16" width="128" height="128" rx="30" fill="#111827"/>
  <path d="M80 34c25 0 46 21 46 46s-21 46-46 46-46-21-46-46 21-46 46-46Z" fill="none" stroke="url(#gold)" stroke-width="8"/>
  <path d="M80 52l15 43-15-8-15 8 15-43Z" fill="#F7D88B"/>
  <path d="M56 73c-10 5-16 14-16 25 14-2 25-8 32-18M104 73c10 5 16 14 16 25-14-2-25-8-32-18" fill="none" stroke="#F7D88B" stroke-width="6" stroke-linecap="round"/>
  <text x="178" y="92" fill="url(#ink)" font-family="Inter, Arial, sans-serif" font-size="48" font-weight="850" letter-spacing="0">LaurelPilot</text>
  <path d="M189 116h142" stroke="#C99A3D" stroke-width="5" stroke-linecap="round"/>
  <text x="188" y="142" fill="#A8B0C1" font-family="Inter, Arial, sans-serif" font-size="15" font-weight="700" letter-spacing="2.8">FESTIVAL STRATEGY DESK</text>
</svg>
